<svg xmlns='http://www.w3.org/2000/svg' width="720" height="480">
	<title>SVG 3D weaving pattern</title>
	<desc>Different seamless SVG pattern 3D weaving pattern - 3D Webmuster in variations of almond green</desc>>
<defs>
<pattern id="myPattern1" width="120" height="80" patternUnits="userSpaceOnUse" patternTransform="rotate(0) scale(3)">
	<!--<rect x="0" y="0" width="120" height="80" fill="#13235B" stroke="" stroke-width=""/>-->
	<polyline points="0,80 60,40 120,80 90,80 60,60 30,80 0,80" stroke="none" fill="#008e8e"/>
	<polyline points="30,80 60,60 60,0 60,80" stroke="none" fill="#007a7a"/>
	<polyline points="60,60 90,80 60,80 60,60" stroke="none" fill="#006666"/>
	<polyline points="0,0 60,40 120,0 120,20 60,60 0,20 0,0" stroke="none" fill="#008e8e"/>
	<polyline points="75,80 60,80 60,60 120,20 120,40 75,70" stroke="none" fill="#007a7a"/>
	<polyline points="60,60 60,80 45,80 45,70 0,40 0,20 60,60" stroke="none" fill="#006666"/>
	<polyline points="120,20 120,80 105,70 105,30 70,5 70,0 90,0" stroke="none" fill="#006666"/>
	<polyline points="0,80 0,20 30,0 50,0 50,5 15,30 15,70" stroke="none" fill="#007a7a"/>
	<polyline points="0,0 30,0 0,20 0,0" stroke="none" fill="#008e8e"/>
	<polyline points="90,0 120,0 120,20 90,0" stroke="none" fill="#008e8e"/>
	<polyline points="60,0 75,0 75,30 60,40 60,0" stroke="none" fill="#007a7a"/>
	<polyline points="45,0 60,0 60,40 45,30" stroke="none" fill="#006666"/>
</pattern>
</defs>
<rect x="0" y="0" width="720" height="480" fill="url(#myPattern1)" stroke="" stroke-width="">
	<!--<animate id="animation1" attributeName="opacity" from="0.3" to="1" dur="5s" begin="0s;animation2.end" />-->
	<!--<animate id="animation2" attributeName="opacity" from="1" to="0.3" dur="2s" begin="animation1.end+3s" />-->
</rect>
<rect x="240" y="160" width="240" height="160" fill="url(#myPattern1)" stroke="none" stroke-width="2" stroke-dasharray="1"/>

</svg>